<svg xmlns:xlink="http://www.w3.org/1999/xlink" xmlns="http://www.w3.org/2000/svg" viewBox="0 0 1000 1000">
 <g transform="translate(475 305)">
  <g transform="translate(-96.6564 -16.8239)">
   <g transform="rotate(-120)">
    <g transform="scale(1.4 1.4)">
     <g transform="skewX(0) skewY(0)">
      <g transform="translate(-475 -305)">
       <path fill-rule="evenodd" stroke="rgba(255, 255, 255, 1)" id="crta6" stroke-width="18" stroke-linejoin="miter" d="M0 0" fill="none" stroke-linecap="butt">
        <animate values="M475 250C475 250 475.012 251.111 475.012 251.111;M475 250C475 250 475.012 251.111 475.012 251.111;M475 250C475 250 475 360 475 360" calcMode="spline" dur="2.4s" keySplines="0 0 1 1;0 0 1 1" attributeName="d" fill="freeze" keyTimes="0;0.666667;1"/>
       </path>
       <animate values="0;0;1;1" calcMode="spline" dur="2.4s" keySplines="0 0 1 1;0 0 1 1;0 0 1 1" attributeName="opacity" fill="freeze" keyTimes="0;0.658333;0.666667;1"/>
      </g>
     </g>
    </g>
   </g>
  </g>
 </g>
 <g transform="translate(125 295)">
  <g transform="translate(130.699 205)">
   <g transform="rotate(0)">
    <g transform="scale(1.4 1.4)">
     <g transform="skewX(0) skewY(0)">
      <g transform="translate(-125 -295)">
       <path fill-rule="evenodd" stroke="rgba(255, 255, 255, 1)" id="crta5" stroke-width="18" stroke-linejoin="miter" d="M0 0" fill="none" stroke-linecap="butt">
        <animate values="M125.021 347.549C125.021 347.549 125 350 125 350;M125.021 347.549C125.021 347.549 125 350 125 350;M125 240C125 240 125 350 125 350;M125 240C125 240 125 350 125 350" calcMode="spline" dur="2.4s" keySplines="0 0 1 1;0 0 1 1;0 0 1 1" attributeName="d" fill="freeze" keyTimes="0;0.583333;0.916667;1"/>
       </path>
       <animate values="0;0;1;1" calcMode="spline" dur="2.4s" keySplines="0 0 1 1;0 0 1 1;0 0 1 1" attributeName="opacity" fill="freeze" keyTimes="0;0.575;0.583333;1"/>
      </g>
     </g>
    </g>
   </g>
  </g>
 </g>
 <g transform="translate(475 305)">
  <g transform="translate(-99.4606 404.081)">
   <g transform="rotate(120)">
    <g transform="scale(1.4 1.4)">
     <g transform="skewX(0) skewY(0)">
      <g transform="translate(-475 -305)">
       <path fill-rule="evenodd" stroke="rgba(255, 255, 255, 1)" id="crta4" stroke-width="18" stroke-linejoin="miter" d="M0 0" fill="none" stroke-linecap="butt">
        <animate values="M475 250C475 250 474.989 252.038 474.989 252.038;M475 250C475 250 474.989 252.038 474.989 252.038;M475 250C475 250 475 360 475 360;M475 250C475 250 475 360 475 360" calcMode="spline" dur="2.4s" keySplines="0 0 1 1;0 0 1 1;0 0 1 1" attributeName="d" fill="freeze" keyTimes="0;0.5;0.833333;1"/>
       </path>
       <animate values="0;0;1;1" calcMode="spline" dur="2.4s" keySplines="0 0 1 1;0 0 1 1;0 0 1 1" attributeName="opacity" fill="freeze" keyTimes="0;0.491667;0.5;1"/>
      </g>
     </g>
    </g>
   </g>
  </g>
 </g>
 <g transform="translate(475 305)">
  <g transform="translate(151.061 404.184)">
   <g transform="rotate(-120)">
    <g transform="scale(1.4 1.4)">
     <g transform="skewX(0) skewY(0)">
      <g transform="translate(-475 -305)">
       <path fill-rule="evenodd" stroke="rgba(255, 255, 255, 1)" id="crta3" stroke-width="18" stroke-linejoin="miter" d="M0 0" fill="none" stroke-linecap="butt">
        <animate values="M474.918 357.816C474.918 357.816 475 360 475 360;M474.918 357.816C474.918 357.816 475 360 475 360;M475 250C475 250 475 360 475 360;M475 250C475 250 475 360 475 360" calcMode="spline" dur="2.4s" keySplines="0 0 1 1;0 0 1 1;0 0 1 1" attributeName="d" fill="freeze" keyTimes="0;0.416667;0.75;1"/>
       </path>
       <animate values="0;0;1;1" calcMode="spline" dur="2.4s" keySplines="0 0 1 1;0 0 1 1;0 0 1 1" attributeName="opacity" fill="freeze" keyTimes="0;0.408333;0.416667;1"/>
      </g>
     </g>
    </g>
   </g>
  </g>
 </g>
 <g transform="translate(475 305)">
  <g transform="translate(270.699 195)">
   <g transform="rotate(0)">
    <g transform="scale(1.4 1.4)">
     <g transform="skewX(0) skewY(0)">
      <g transform="translate(-475 -305)">
       <path fill-rule="evenodd" stroke="rgba(255, 255, 255, 1)" id="crta2" stroke-width="18" stroke-linejoin="miter" d="M0 0" fill="none" stroke-linecap="butt">
        <animate values="M475 250C475 250 474.99 252.481 474.99 252.481;M475 250C475 250 474.99 252.481 474.99 252.481;M475 250C475 250 475 360 475 360;M475 250C475 250 475 360 475 360" calcMode="spline" dur="2.4s" keySplines="0 0 1 1;0 0 1 1;0 0 1 1" attributeName="d" fill="freeze" keyTimes="0;0.333333;0.666667;1"/>
       </path>
       <animate values="0;0;1;1" calcMode="spline" dur="2.4s" keySplines="0 0 1 1;0 0 1 1;0 0 1 1" attributeName="opacity" fill="freeze" keyTimes="0;0.325;0.333333;1"/>
      </g>
     </g>
    </g>
   </g>
  </g>
 </g>
 <g transform="translate(475 305)">
  <g transform="translate(148.108 -16.1403)">
   <g transform="rotate(120)">
    <g transform="scale(1.4 1.4)">
     <g transform="skewX(0) skewY(0)">
      <g transform="translate(-475 -305)">
       <path fill-rule="evenodd" stroke="rgba(255, 255, 255, 1)" id="crta1" stroke-width="18" stroke-linejoin="miter" d="M0 0" fill="none" stroke-linecap="butt">
        <animate values="M475.002 358.955C475.002 358.955 475 360 475 360;M475.002 358.955C475.002 358.955 475 360 475 360;M475 250C475 250 475 360 475 360;M475 250C475 250 475 360 475 360" calcMode="spline" dur="2.4s" keySplines="0 0 1 1;0 0 1 1;0 0 1 1" attributeName="d" fill="freeze" keyTimes="0;0.25;0.583333;1"/>
       </path>
       <animate values="0;0;1;1" calcMode="spline" dur="2.4s" keySplines="0 0 1 1;0 0 1 1;0 0 1 1" attributeName="opacity" fill="freeze" keyTimes="0;0.241667;0.25;1"/>
      </g>
     </g>
    </g>
   </g>
  </g>
 </g>
 <g transform="translate(125 200)">
  <g transform="translate(129.301 160)">
   <g transform="rotate(0)">
    <g>
     <animateTransform values="0 1;0 1;1.4 1;1.4 1" calcMode="spline" dur="2.4s" keySplines="0 0 1 1;0 0 1 1;0 0 1 1" type="scale" attributeName="transform" fill="freeze" keyTimes="0;0.416667;0.666667;1"/>
     <g>
      <animateTransform values="1 0;1 0;1 1.4;1 1.4" calcMode="spline" dur="2.4s" keySplines="0 0 1 1;0 0 1 1;0 0 1 1" type="scale" attributeName="transform" fill="freeze" keyTimes="0;0.416667;0.666667;1"/>
      <g transform="skewX(0) skewY(0)">
       <g transform="translate(-125 -200)" opacity="1">
        <path fill-rule="evenodd" stroke="none" id="krug6" stroke-width="1" stroke-linejoin="miter" d="M175 200C175 227.614 152.614 250 125 250C97.3858 250 75 227.614 75 200C75 172.386 97.3858 150 125 150C152.614 150 175 172.386 175 200Z" fill="rgba(255, 255, 255, 1)" stroke-linecap="butt"/>
       </g>
      </g>
     </g>
    </g>
   </g>
  </g>
 </g>
 <g transform="translate(299 100)">
  <g transform="translate(-44.699 260)">
   <g transform="rotate(0)">
    <g>
     <animateTransform values="0 1;0 1;2 1;2 1" calcMode="spline" dur="2.4s" keySplines="0 0 1 1;0 0 1 1;0 0 1 1" type="scale" attributeName="transform" fill="freeze" keyTimes="0;0.5;0.666667;1"/>
     <g>
      <animateTransform values="1 0;1 0;1 2;1 2" calcMode="spline" dur="2.4s" keySplines="0 0 1 1;0 0 1 1;0 0 1 1" type="scale" attributeName="transform" fill="freeze" keyTimes="0;0.5;0.666667;1"/>
      <g transform="skewX(0) skewY(0)">
       <g transform="translate(-299 -100)">
        <path fill-rule="evenodd" stroke="rgba(255, 255, 255, 1)" id="krug6b" stroke-width="1" stroke-linejoin="miter" d="M349 100C349 127.614 326.614 150 299 150C271.386 150 249 127.614 249 100C249 72.3858 271.386 50 299 50C326.614 50 349 72.3858 349 100Z" fill="rgba(255, 255, 255, 0)" stroke-linecap="butt"/>
        <animate values="1;1;0;0" calcMode="spline" dur="2.4s" keySplines="0 0 1 1;0 0 1 1;0 0 1 1" attributeName="opacity" fill="freeze" keyTimes="0;0.583333;0.666667;1"/>
       </g>
      </g>
     </g>
    </g>
   </g>
  </g>
 </g>
 <g transform="translate(125 400)">
  <g transform="translate(129.301 240)">
   <g transform="rotate(0)">
    <g>
     <animateTransform values="0 1;0 1;1.4 1;1.4 1" calcMode="spline" dur="2.4s" keySplines="0 0 1 1;0 0 1 1;0 0 1 1" type="scale" attributeName="transform" fill="freeze" keyTimes="0;0.333333;0.583333;1"/>
     <g>
      <animateTransform values="1 0;1 0;1 1.4;1 1.4" calcMode="spline" dur="2.4s" keySplines="0 0 1 1;0 0 1 1;0 0 1 1" type="scale" attributeName="transform" fill="freeze" keyTimes="0;0.333333;0.583333;1"/>
      <g transform="skewX(0) skewY(0)">
       <g transform="translate(-125 -400)" opacity="1">
        <path fill-rule="evenodd" stroke="none" id="krug5" stroke-width="1" stroke-linejoin="miter" d="M175 400C175 427.614 152.614 450 125 450C97.3858 450 75 427.614 75 400C75 372.386 97.3858 350 125 350C152.614 350 175 372.386 175 400Z" fill="rgba(255, 255, 255, 1)" stroke-linecap="butt"/>
       </g>
      </g>
     </g>
    </g>
   </g>
  </g>
 </g>
 <g transform="translate(299 100)">
  <g transform="translate(-44.699 540)">
   <g transform="rotate(0)">
    <g>
     <animateTransform values="0 1;0 1;2 1;2 1" calcMode="spline" dur="2.4s" keySplines="0 0 1 1;0 0 1 1;0 0 1 1" type="scale" attributeName="transform" fill="freeze" keyTimes="0;0.416667;0.583333;1"/>
     <g>
      <animateTransform values="1 0;1 0;1 2;1 2" calcMode="spline" dur="2.4s" keySplines="0 0 1 1;0 0 1 1;0 0 1 1" type="scale" attributeName="transform" fill="freeze" keyTimes="0;0.416667;0.583333;1"/>
      <g transform="skewX(0) skewY(0)">
       <g transform="translate(-299 -100)">
        <path fill-rule="evenodd" stroke="rgba(255, 255, 255, 1)" id="krug5b" stroke-width="1" stroke-linejoin="miter" d="M349 100C349 127.614 326.614 150 299 150C271.386 150 249 127.614 249 100C249 72.3858 271.386 50 299 50C326.614 50 349 72.3858 349 100Z" fill="rgba(255, 255, 255, 0)" stroke-linecap="butt"/>
        <animate values="1;1;0;0" calcMode="spline" dur="2.4s" keySplines="0 0 1 1;0 0 1 1;0 0 1 1" attributeName="opacity" fill="freeze" keyTimes="0;0.5;0.583333;1"/>
       </g>
      </g>
     </g>
    </g>
   </g>
  </g>
 </g>
 <g transform="translate(302 500)">
  <g transform="translate(200.099 280)">
   <g transform="rotate(0)">
    <g>
     <animateTransform values="0 1;0 1;1.4 1;1.4 1" calcMode="spline" dur="2.4s" keySplines="0 0 1 1;0 0 1 1;0 0 1 1" type="scale" attributeName="transform" fill="freeze" keyTimes="0;0.25;0.5;1"/>
     <g>
      <animateTransform values="1 0;1 0;1 1.4;1 1.4" calcMode="spline" dur="2.4s" keySplines="0 0 1 1;0 0 1 1;0 0 1 1" type="scale" attributeName="transform" fill="freeze" keyTimes="0;0.25;0.5;1"/>
      <g transform="skewX(0) skewY(0)">
       <g transform="translate(-302 -500)" opacity="1">
        <path fill-rule="evenodd" stroke="none" id="krug4" stroke-width="1" stroke-linejoin="miter" d="M350 500C350 527.614 327.614 550 300 550C272.386 550 250 527.614 250 500C250 472.386 272.386 450 300 450C327.614 450 350 472.386 350 500Z" fill="rgba(255, 255, 255, 1)" stroke-linecap="butt"/>
       </g>
      </g>
     </g>
    </g>
   </g>
  </g>
 </g>
 <g transform="translate(299 100)">
  <g transform="translate(200.299 680)">
   <g transform="rotate(0)">
    <g>
     <animateTransform values="0 1;0 1;2 1;2 1" calcMode="spline" dur="2.4s" keySplines="0 0 1 1;0 0 1 1;0 0 1 1" type="scale" attributeName="transform" fill="freeze" keyTimes="0;0.333333;0.5;1"/>
     <g>
      <animateTransform values="1 0;1 0;1 2;1 2" calcMode="spline" dur="2.4s" keySplines="0 0 1 1;0 0 1 1;0 0 1 1" type="scale" attributeName="transform" fill="freeze" keyTimes="0;0.333333;0.5;1"/>
      <g transform="skewX(0) skewY(0)">
       <g transform="translate(-299 -100)">
        <path fill-rule="evenodd" stroke="rgba(255, 255, 255, 1)" id="krug4b" stroke-width="1" stroke-linejoin="miter" d="M349 100C349 127.614 326.614 150 299 150C271.386 150 249 127.614 249 100C249 72.3858 271.386 50 299 50C326.614 50 349 72.3858 349 100Z" fill="rgba(255, 255, 255, 0)" stroke-linecap="butt"/>
        <animate values="1;1;0;0" calcMode="spline" dur="2.4s" keySplines="0 0 1 1;0 0 1 1;0 0 1 1" attributeName="opacity" fill="freeze" keyTimes="0;0.416667;0.5;1"/>
       </g>
      </g>
     </g>
    </g>
   </g>
  </g>
 </g>
 <g transform="translate(475 400)">
  <g transform="translate(270.699 240)">
   <g transform="rotate(0)">
    <g>
     <animateTransform values="0 1;0 1;1.4 1;1.4 1" calcMode="spline" dur="2.4s" keySplines="0 0 1 1;0 0 1 1;0 0 1 1" type="scale" attributeName="transform" fill="freeze" keyTimes="0;0.166667;0.416667;1"/>
     <g>
      <animateTransform values="1 0;1 0;1 1.4;1 1.4" calcMode="spline" dur="2.4s" keySplines="0 0 1 1;0 0 1 1;0 0 1 1" type="scale" attributeName="transform" fill="freeze" keyTimes="0;0.166667;0.416667;1"/>
      <g transform="skewX(0) skewY(0)">
       <g transform="translate(-475 -400)" opacity="1">
        <path fill-rule="evenodd" stroke="none" id="krug3" stroke-width="1" stroke-linejoin="miter" d="M525 400C525 427.614 502.614 450 475 450C447.386 450 425 427.614 425 400C425 372.386 447.386 350 475 350C502.614 350 525 372.386 525 400Z" fill="rgba(255, 255, 255, 1)" stroke-linecap="butt"/>
       </g>
      </g>
     </g>
    </g>
   </g>
  </g>
 </g>
 <g transform="translate(299 100)">
  <g transform="translate(445.301 540)">
   <g transform="rotate(0)">
    <g>
     <animateTransform values="0 1;0 1;2 1;2 1" calcMode="spline" dur="2.4s" keySplines="0 0 1 1;0 0 1 1;0 0 1 1" type="scale" attributeName="transform" fill="freeze" keyTimes="0;0.25;0.416667;1"/>
     <g>
      <animateTransform values="1 0;1 0;1 2;1 2" calcMode="spline" dur="2.4s" keySplines="0 0 1 1;0 0 1 1;0 0 1 1" type="scale" attributeName="transform" fill="freeze" keyTimes="0;0.25;0.416667;1"/>
      <g transform="skewX(0) skewY(0)">
       <g transform="translate(-299 -100)">
        <path fill-rule="evenodd" stroke="rgba(255, 255, 255, 1)" id="krug3b" stroke-width="1" stroke-linejoin="miter" d="M349 100C349 127.614 326.614 150 299 150C271.386 150 249 127.614 249 100C249 72.3858 271.386 50 299 50C326.614 50 349 72.3858 349 100Z" fill="rgba(255, 255, 255, 0)" stroke-linecap="butt"/>
        <animate values="1;1;0;0" calcMode="spline" dur="2.4s" keySplines="0 0 1 1;0 0 1 1;0 0 1 1" attributeName="opacity" fill="freeze" keyTimes="0;0.333333;0.416667;1"/>
       </g>
      </g>
     </g>
    </g>
   </g>
  </g>
 </g>
 <g transform="translate(475 200)">
  <g transform="translate(269.301 160)">
   <g transform="rotate(0)">
    <g>
     <animateTransform values="0 1;0 1;1.4 1;1.4 1" calcMode="spline" dur="2.4s" keySplines="0 0 1 1;0 0 1 1;0 0 1 1" type="scale" attributeName="transform" fill="freeze" keyTimes="0;0.0833333;0.333333;1"/>
     <g>
      <animateTransform values="1 0;1 0;1 1.4;1 1.4" calcMode="spline" dur="2.4s" keySplines="0 0 1 1;0 0 1 1;0 0 1 1" type="scale" attributeName="transform" fill="freeze" keyTimes="0;0.0833333;0.333333;1"/>
      <g transform="skewX(0) skewY(0)">
       <g transform="translate(-475 -200)" opacity="1">
        <path fill-rule="evenodd" stroke="none" id="krug2" stroke-width="1" stroke-linejoin="miter" d="M525 200C525 227.614 502.614 250 475 250C447.386 250 425 227.614 425 200C425 172.386 447.386 150 475 150C502.614 150 525 172.386 525 200Z" fill="rgba(255, 255, 255, 1)" stroke-linecap="butt"/>
       </g>
      </g>
     </g>
    </g>
   </g>
  </g>
 </g>
 <g transform="translate(299 100)">
  <g transform="translate(445.301 260)">
   <g transform="rotate(0)">
    <g>
     <animateTransform values="0 1;0 1;2 1;2 1" calcMode="spline" dur="2.4s" keySplines="0 0 1 1;0 0 1 1;0 0 1 1" type="scale" attributeName="transform" fill="freeze" keyTimes="0;0.166667;0.333333;1"/>
     <g>
      <animateTransform values="1 0;1 0;1 2;1 2" calcMode="spline" dur="2.4s" keySplines="0 0 1 1;0 0 1 1;0 0 1 1" type="scale" attributeName="transform" fill="freeze" keyTimes="0;0.166667;0.333333;1"/>
      <g transform="skewX(0) skewY(0)">
       <g transform="translate(-299 -100)">
        <path fill-rule="evenodd" stroke="rgba(255, 255, 255, 1)" id="krug2b" stroke-width="1" stroke-linejoin="miter" d="M349 100C349 127.614 326.614 150 299 150C271.386 150 249 127.614 249 100C249 72.3858 271.386 50 299 50C326.614 50 349 72.3858 349 100Z" fill="rgba(255, 255, 255, 0)" stroke-linecap="butt"/>
        <animate values="1;1;0;0" calcMode="spline" dur="2.4s" keySplines="0 0 1 1;0 0 1 1;0 0 1 1" attributeName="opacity" fill="freeze" keyTimes="0;0.25;0.333333;1"/>
       </g>
      </g>
     </g>
    </g>
   </g>
  </g>
 </g>
 <g transform="translate(299 100)">
  <g transform="translate(198.901 120)">
   <g transform="rotate(0)">
    <g>
     <animateTransform values="0 1;0 1;1.4 1;1.4 1" calcMode="spline" dur="2.4s" keySplines="0 0 1 1;0 0 1 1;0 0 1 1" type="scale" attributeName="transform" fill="freeze" keyTimes="0;0.0166667;0.25;1"/>
     <g>
      <animateTransform values="1 0;1 0;1 1.4;1 1.4" calcMode="spline" dur="2.4s" keySplines="0 0 1 1;0 0 1 1;0 0 1 1" type="scale" attributeName="transform" fill="freeze" keyTimes="0;0.0166667;0.25;1"/>
      <g transform="skewX(0) skewY(0)">
       <g transform="translate(-299 -100)" opacity="1">
        <path fill-rule="evenodd" stroke="none" id="krug1" stroke-width="1" stroke-linejoin="miter" d="M349 100C349 127.614 326.614 150 299 150C271.386 150 249 127.614 249 100C249 72.3858 271.386 50 299 50C326.614 50 349 72.3858 349 100Z" fill="rgba(255, 255, 255, 1)" stroke-linecap="butt"/>
       </g>
      </g>
     </g>
    </g>
   </g>
  </g>
 </g>
 <g transform="translate(299 100)">
  <g transform="translate(198.901 120)">
   <g transform="rotate(0)">
    <g>
     <animateTransform values="0 1;0 1;2 1;2 1" calcMode="spline" dur="2.4s" keySplines="0 0 1 1;0 0 1 1;0 0 1 1" type="scale" attributeName="transform" fill="freeze" keyTimes="0;0.0833333;0.25;1"/>
     <g>
      <animateTransform values="1 0;1 0;1 2;1 2" calcMode="spline" dur="2.4s" keySplines="0 0 1 1;0 0 1 1;0 0 1 1" type="scale" attributeName="transform" fill="freeze" keyTimes="0;0.0833333;0.25;1"/>
      <g transform="skewX(0) skewY(0)">
       <g transform="translate(-299 -100)">
        <path fill-rule="evenodd" stroke="rgba(255, 255, 255, 1)" id="krug1b" stroke-width="1" stroke-linejoin="miter" d="M349 100C349 127.614 326.614 150 299 150C271.386 150 249 127.614 249 100C249 72.3858 271.386 50 299 50C326.614 50 349 72.3858 349 100Z" fill="rgba(255, 255, 255, 0)" stroke-linecap="butt"/>
        <animate values="1;1;0;0" calcMode="spline" dur="2.4s" keySplines="0 0 1 1;0 0 1 1;0 0 1 1" attributeName="opacity" fill="freeze" keyTimes="0;0.166667;0.25;1"/>
       </g>
      </g>
     </g>
    </g>
   </g>
  </g>
 </g>
 <defs/>
</svg>